<?xml version="1.0" encoding="UTF-8" standalone="no"?>
<!-- Created with Inkscape (http://www.inkscape.org/) -->

<svg
   xmlns:dc="http://purl.org/dc/elements/1.1/"
   xmlns:cc="http://creativecommons.org/ns#"
   xmlns:rdf="http://www.w3.org/1999/02/22-rdf-syntax-ns#"
   xmlns:svg="http://www.w3.org/2000/svg"
   xmlns="http://www.w3.org/2000/svg"
   xmlns:sodipodi="http://sodipodi.sourceforge.net/DTD/sodipodi-0.dtd"
   xmlns:inkscape="http://www.inkscape.org/namespaces/inkscape"
   width="280"
   height="280"
   viewBox="0 0 280 280"
   id="svg2"
   version="1.1"
   inkscape:version="0.92.1 r15371"
   sodipodi:docname="20190126[mouse_mod].svg"
   inkscape:export-filename="C:\Users\danie_000\Documents\Visual Studio 2013\Projects\PxKeystrokesForScreencasts\PxKeystrokesUi\Resources\mouse_middle.png"
   inkscape:export-xdpi="50.09"
   inkscape:export-ydpi="50.09">
  <defs
     id="defs4" />
  <sodipodi:namedview
     id="base"
     pagecolor="#ffffff"
     bordercolor="#666666"
     borderopacity="1.0"
     inkscape:pageopacity="0"
     inkscape:pageshadow="2"
     inkscape:zoom="1.4142136"
     inkscape:cx="65.590798"
     inkscape:cy="159.24528"
     inkscape:document-units="px"
     inkscape:current-layer="layer2"
     showgrid="false"
     inkscape:window-width="1440"
     inkscape:window-height="837"
     inkscape:window-x="-8"
     inkscape:window-y="-8"
     inkscape:window-maximized="1"
     showguides="true"
     inkscape:snap-page="true"
     inkscape:snap-text-baseline="true"
     inkscape:snap-center="true"
     inkscape:snap-object-midpoints="true"
     inkscape:snap-midpoints="true"
     inkscape:snap-smooth-nodes="true"
     inkscape:snap-intersection-paths="true"
     inkscape:object-paths="true"
     inkscape:snap-bbox="true"
     inkscape:bbox-paths="true"
     inkscape:bbox-nodes="true"
     inkscape:snap-bbox-edge-midpoints="true"
     inkscape:snap-bbox-midpoints="true"
     fit-margin-left="0"
     units="px"
     scale-x="1"
     viewbox-x="74"
     viewbox-y="74"
     fit-margin-top="0"
     fit-margin-right="0"
     fit-margin-bottom="0" />
  <metadata
     id="metadata7">
    <rdf:RDF>
      <cc:Work
         rdf:about="">
        <dc:format>image/svg+xml</dc:format>
        <dc:type
           rdf:resource="http://purl.org/dc/dcmitype/StillImage" />
        <dc:title></dc:title>
      </cc:Work>
    </rdf:RDF>
  </metadata>
  <g
     inkscape:groupmode="layer"
     id="layer2"
     inkscape:label="Ebene"
     style="display:inline"
     transform="translate(-1.2597122,0.29523051)">
    <g
       style="display:inline"
       id="g4593"
       transform="matrix(1.0684336,0,0,1.0684336,12.542733,-0.44339221)">
      <path
         inkscape:connector-curvature="0"
         style="display:inline;opacity:1;fill:#404040;fill-opacity:1;fill-rule:evenodd;stroke:none;stroke-width:1.02051365px;stroke-linecap:butt;stroke-linejoin:miter;stroke-opacity:1"
         d="m 125.71455,836.24018 c 38.10437,2.61205 66.88183,32.92458 68.40567,69.88441 0.40589,9.84435 0.66031,17.95744 0.80771,25.34772 -22.5909,5.00781 -45.82912,7.7508 -69.21338,8.16978 v -21.18481 c 7.05658,-2.73751 12.03836,-10.8781 12.36868,-20.4913 0.28416,-8.26999 0.3259,-12.76166 0,-22.91267 -0.30871,-9.61535 -5.30486,-17.75517 -12.36868,-20.49144 z"
         id="path4393"
         transform="translate(0,-790.15733)" />
      <path
         inkscape:connector-curvature="0"
         id="path3347"
         d="m 194.98966,942.08836 c -24.31344,5.42056 -49.37445,8.21496 -74.55707,8.31343 -25.17318,-0.0432 -50.233555,-2.78044 -74.555639,-8.14354 -0.01913,11.98414 0.315063,25.70428 0.947126,40.0285 1.706248,38.66815 33.022326,70.07525 73.756543,70.07515 40.73422,10e-5 72.89722,-31.3816 73.7551,-70.07515 0.34636,-15.62172 0.62074,-28.91492 0.65394,-40.19839 z"
         style="display:inline;opacity:1;fill:#404040;fill-opacity:1;fill-rule:evenodd;stroke:none;stroke-width:1.02051365px;stroke-linecap:butt;stroke-linejoin:miter;stroke-opacity:1"
         transform="translate(0,-790.15733)" />
      <path
         id="path4407-0-5"
         d="m 115.2301,836.24659 c -38.104389,2.61205 -66.881849,32.92458 -68.405689,69.88441 -0.40588,9.84435 -0.66031,17.95744 -0.80771,25.34772 22.590901,5.00781 45.829126,7.7508 69.213399,8.16978 v -21.18481 c -7.05659,-2.73751 -12.03836,-10.8781 -12.36869,-20.4913 -0.28415,-8.26999 -0.3259,-12.76166 0,-22.91267 0.30871,-9.61535 5.30487,-17.75517 12.36869,-20.49144 z"
         style="display:inline;opacity:1;fill:#404040;fill-opacity:1;fill-rule:evenodd;stroke:none;stroke-width:1.02051365px;stroke-linecap:butt;stroke-linejoin:miter;stroke-opacity:1"
         inkscape:connector-curvature="0"
         transform="translate(0,-790.15733)" />
      <path
         sodipodi:nodetypes="sssssss"
         inkscape:connector-curvature="0"
         id="path3347-0-2-7-9"
         d="m 120.49239,864.8082 c -5.52617,-1e-5 -9.78984,6.29302 -10.00614,14.04267 -0.18521,6.63526 -0.16149,9.5719 0,14.97765 0.23148,7.74889 4.47989,14.04295 10.00614,14.04294 5.52626,1e-5 9.88976,-6.28895 10.00613,-14.04294 0.0896,-5.9755 0.1471,-8.16273 0,-14.97765 -0.15569,-7.21289 -4.47996,-14.04269 -10.00613,-14.04267 z"
         style="display:inline;opacity:1;fill:#404040;fill-opacity:1;fill-rule:evenodd;stroke:none;stroke-width:1.02051365px;stroke-linecap:butt;stroke-linejoin:miter;stroke-opacity:1"
         transform="translate(0,-790.15733)" />
    </g>
    <g
       id="g4605"
       transform="matrix(1.0684336,0,0,1.0684336,12.542733,-0.44339221)">
      <path
         sodipodi:nodetypes="sssssss"
         inkscape:connector-curvature="0"
         id="path3347-0-2"
         d="m 120.49902,857.67308 c -7.35744,-3e-5 -13.034,8.37838 -13.32198,18.6961 -0.24658,8.83402 -0.21499,12.74385 0,19.94096 0.30819,10.3167 5.96444,18.69647 13.32198,18.69645 7.35755,2e-5 13.16703,-8.37297 13.32196,-18.69645 0.11938,-7.95568 0.19587,-10.86771 0,-19.94096 -0.20727,-9.60312 -5.96453,-18.69614 -13.32196,-18.6961 z"
         style="display:inline;opacity:1;fill:#c12a5f;fill-opacity:1;fill-rule:evenodd;stroke:none;stroke-width:1.02051365px;stroke-linecap:butt;stroke-linejoin:miter;stroke-opacity:1"
         transform="translate(0,-790.15733)" />
      <path
         style="display:inline;opacity:1;fill:#1985ff;fill-opacity:1;fill-rule:evenodd;stroke:none;stroke-width:1px;stroke-linecap:butt;stroke-linejoin:miter;stroke-opacity:1"
         d="m 60.059263,968.6297 120.747307,-0.56516 -60.37365,64.93666 z"
         id="path4373"
         inkscape:connector-curvature="0"
         sodipodi:nodetypes="cccc"
         transform="translate(0,-790.15733)" />
      <path
         sodipodi:nodetypes="cccc"
         inkscape:connector-curvature="0"
         id="path4163-3"
         d="m 60.059263,1016.7947 120.747307,0.5652 -60.37365,-64.93663 z"
         style="display:inline;opacity:1;fill:#1985ff;fill-opacity:1;fill-rule:evenodd;stroke:none;stroke-width:1px;stroke-linecap:butt;stroke-linejoin:miter;stroke-opacity:1"
         transform="translate(0,-790.15733)" />
      <path
         inkscape:connector-curvature="0"
         id="path4346"
         d="m 114.55113,813.15318 -0.0234,0.002 c -0.29229,0.009 -0.58522,0.0227 -0.87696,0.043 -0.009,5.8e-4 -0.0168,9.5e-4 -0.0254,0.002 -49.532929,3.40831 -87.884867,43.52121 -89.882823,91.98047 -0.349114,8.46753 -0.572904,14.78185 -0.730469,21.42383 4.066958,0.97342 8.142826,1.88072 12.224609,2.74023 0.152134,-7.19365 0.398175,-14.22482 0.78711,-23.6582 1.7446,-42.31425 35.039583,-77.24767 78.466813,-80.22461 0.14047,-0.01 0.28113,-0.0171 0.42188,-0.0215 0.10614,3.9e-4 0.21225,0.002 0.31836,0.006 v -12.29296 c -0.22644,-0.001 -0.45265,-0.007 -0.67969,0 z"
         style="display:inline;opacity:1;fill:#c12a5f;fill-opacity:1;stroke:none;stroke-opacity:1"
         transform="translate(0,-790.15733)" />
      <path
         inkscape:connector-curvature="0"
         transform="translate(-5.340573e-5)"
         id="path4344"
         d="m 115.23047,0.14453125 c -0.0749,0.004 -0.14151,0.007019 -0.2168,0.0117188 -0.001,8e-5 -0.003,-8e-5 -0.004,0 -0.15703,0.004 -0.31397,0.0110844 -0.47071,0.0214844 -0.0236,0.002 -0.007,1.0312e-4 -0.0332,0.001953 -0.005,3.2e-4 -0.009,0.001953 -0.0137,0.001953 -0.0523,0.004 -0.0725,0.005859 -0.0703,0.005859 v 0.001953 C 52.660573,4.4823057 4.3686817,54.789594 1.8632812,115.55664 c -0.2635989,6.39336 -0.4503135,9.9922 -0.6035156,15.32031 4.6341849,1.3732 9.2781854,2.68859 13.9355464,3.91211 0.159334,-6.24333 0.370072,-10.8625 0.691407,-18.65625 C 18.097886,62.502171 60.592453,18.082534 115.23047,14.201172 Z"
         style="display:inline;opacity:1;fill:#c12a5f;fill-opacity:1;stroke:none;stroke-opacity:1" />
      <path
         inkscape:connector-curvature="0"
         id="path4389"
         d="m 125.71324,813.14732 v 12.29297 c 0.1061,-0.004 0.21222,-0.005 0.31836,-0.006 0.14075,0.004 0.2814,0.0115 0.42187,0.0215 43.42721,2.97694 76.7222,37.91035 78.4668,80.22461 0.38893,9.43339 0.63498,16.46456 0.78711,23.6582 4.08179,-0.85951 8.15765,-1.7668 12.22461,-2.74023 -0.15756,-6.64198 -0.38136,-12.95631 -0.73047,-21.42383 -1.99796,-48.45927 -40.34989,-88.57216 -89.88281,-91.98047 -0.009,-10e-4 -0.0164,-10e-4 -0.0254,-0.002 -0.29174,-0.0203 -0.58467,-0.034 -0.87696,-0.043 l -0.0234,-0.002 c -0.22704,-0.007 -0.45325,-10e-4 -0.67968,0 z"
         style="display:inline;opacity:1;fill:#c12a5f;fill-opacity:1;stroke:none;stroke-opacity:1"
         transform="translate(0,-790.15733)" />
      <path
         inkscape:connector-curvature="0"
         id="path4391"
         transform="translate(-5.340573e-5)"
         d="M 125.71484,0.13867188 V 14.195312 c 54.63801,3.881363 97.13259,48.301089 99.34375,101.931638 0.32134,7.79375 0.53208,12.41292 0.69141,18.65625 4.65736,-1.22352 9.30136,-2.53891 13.93555,-3.91211 -0.1532,-5.32811 -0.33992,-8.92694 -0.60352,-15.32031 C 236.57663,54.783735 188.28472,4.4764463 126.52344,0.18359375 v -0.001953 c 0.002,0 -0.018,-0.001859 -0.0703,-0.005859 -0.005,0 -0.009,-0.001633 -0.0137,-0.001953 -0.0262,-0.00185 -0.01,4.688e-5 -0.0332,-0.001953 -0.15674,-0.0104 -0.31367,-0.0174844 -0.4707,-0.0214844 -0.001,-8e-5 -0.003,8.001e-5 -0.004,0 -0.0753,-0.0047 -0.1419,-0.007719 -0.2168,-0.0117187 z"
         style="display:inline;opacity:1;fill:#c12a5f;fill-opacity:1;stroke:none;stroke-opacity:1" />
      <path
         inkscape:connector-curvature="0"
         style="display:inline;opacity:1;fill:#c12a5f;fill-opacity:1;fill-rule:evenodd;stroke:none;stroke-width:1.02051365px;stroke-linecap:butt;stroke-linejoin:miter;stroke-opacity:1"
         d="m 125.71455,46.082849 c 38.10437,2.61205 66.88182,32.924579 68.40566,69.884411 0.40589,9.84435 0.66031,17.95744 0.80772,25.34772 -22.5909,5.00781 -45.82912,7.75079 -69.21338,8.16978 v -21.18481 c 7.05658,-2.73751 12.03836,-10.8781 12.36868,-20.4913 0.28416,-8.269993 0.3259,-12.761662 0,-22.912673 -0.30871,-9.615349 -5.30486,-17.755168 -12.36868,-20.491439 z"
         id="path4393-3" />
      <path
         id="path4407-0-5-9"
         d="m 115.2301,46.089259 c -38.10439,2.61205 -66.881849,32.924579 -68.405689,69.884411 -0.40588,9.84435 -0.66031,17.95744 -0.80771,25.34772 22.5909,5.0078 45.829124,7.75079 69.213399,8.16977 v -21.1848 c -7.05659,-2.73751 -12.03836,-10.8781 -12.36869,-20.4913 -0.28415,-8.269992 -0.3259,-12.761663 0,-22.912672 0.30871,-9.61535 5.30487,-17.75517 12.36869,-20.491439 z"
         style="display:inline;opacity:1;fill:#c12a5f;fill-opacity:1;fill-rule:evenodd;stroke:none;stroke-width:1.02051365px;stroke-linecap:butt;stroke-linejoin:miter;stroke-opacity:1"
         inkscape:connector-curvature="0" />
      <path
         sodipodi:nodetypes="sssssss"
         inkscape:connector-curvature="0"
         id="path3347-0-2-78"
         d="m 120.49902,67.515751 c -7.35744,-3e-5 -13.034,8.378379 -13.32198,18.696099 -0.24658,8.83402 -0.21499,12.74385 0,19.94096 0.30819,10.3167 5.96444,18.69647 13.32198,18.69645 7.35755,2e-5 13.16703,-8.37297 13.32196,-18.69645 0.11938,-7.95568 0.19587,-10.86771 0,-19.94096 -0.20727,-9.60312 -5.96453,-18.696139 -13.32196,-18.696099 z"
         style="display:inline;opacity:1;fill:#1985ff;fill-opacity:1;fill-rule:evenodd;stroke:none;stroke-width:1.02051365px;stroke-linecap:butt;stroke-linejoin:miter;stroke-opacity:1" />
    </g>
  </g>
</svg>
