<?xml version="1.0" encoding="UTF-8"?>
<svg version="1.1" viewBox="0 0 280 280" xmlns="http://www.w3.org/2000/svg">
 <path d="m60 151.95898c5.386675 1.08565 10.786588 2.12317 16.224609 2.99024 6.444908 1.02761 12.924343 1.90061 19.431641 2.61719 6.5073 0.71657 13.04243 1.27656 19.60156 1.67773 6.55914 0.40117 13.14177 0.64322 19.74219 0.72461v-21.66211c-1.00489-0.27658-1.9778-0.6339-2.91016-1.06445s-1.8233-0.93435-2.66796-1.50391c-1.68934-1.13911-3.18995-2.54113-4.4375-4.14648-0.62378-0.80268-1.18325-1.65594-1.67383-2.55274-0.49059-0.89679-0.91169-1.83655-1.25391-2.8125s-0.60646-1.98916-0.78516-3.02929c-0.17869-1.04014-0.27148-2.1079-0.27148-3.19727v-30c0-1.089365 0.0928-2.157128 0.27148-3.197266 0.1787-1.040138 0.44294-2.053348 0.78516-3.029296 0.34222-0.975949 0.76332-1.915706 1.25391-2.8125 0.49058-0.896795 1.05005-1.750056 1.67383-2.552735 1.24755-1.605357 2.74817-3.007372 4.4375-4.146484 0.84466-0.569556 1.73561-1.073356 2.66796-1.503907 0.93236-0.43055 1.90529-0.787871 2.91016-1.064453v-21.443359a80 80 0 0 0-75 79.75z" fill="#c12a5f"/>
</svg>
