<?xml version="1.0" encoding="UTF-8"?>
<svg version="1.1" viewBox="0 0 280 280" xmlns="http://www.w3.org/2000/svg">
 <path d="m60 151.95898c5.386675 1.08565 10.786588 2.12317 16.224609 2.99024 6.444908 1.02761 12.924343 1.90061 19.431641 2.61719 6.5073 0.71657 13.04243 1.27656 19.60156 1.67773 6.55914 0.40117 13.14177 0.64322 19.74219 0.72461v-21.66211c-1.00489-0.27658-1.9778-0.6339-2.91016-1.06445s-1.8233-0.93435-2.66796-1.50391c-1.68934-1.13911-3.18995-2.54113-4.4375-4.14648-0.62378-0.80268-1.18325-1.65594-1.67383-2.55274-0.49059-0.89679-0.91169-1.83655-1.25391-2.8125s-0.60646-1.98916-0.78516-3.02929c-0.17869-1.04014-0.27148-2.1079-0.27148-3.19727v-30.000004c0-1.089365 0.0928-2.157128 0.27148-3.197266 0.1787-1.040138 0.44294-2.053348 0.78516-3.029296 0.34222-0.975949 0.76332-1.915706 1.25391-2.8125 0.49058-0.896795 1.05005-1.750056 1.67383-2.552735 1.24755-1.605357 2.74817-3.007372 4.4375-4.146484 0.84466-0.569556 1.73561-1.073356 2.66796-1.503907 0.93236-0.43055 1.90529-0.787871 2.91016-1.064453v-21.443359a80 80 0 0 0-75 79.750004z" fill="#c12a5f"/>
 <path d="m135 40.251953v-14.998047c-55.571946 2.635831-100 48.532812-100 104.74609v16.08789c1.006419 0.27023 1.995181 0.59685 3.003906 0.85938 3.971946 1.03369 7.990061 1.90103 11.996094 2.81445v-19.76172c0-48.106142 37.556054-87.148091 85-89.748047z" fill="#c12a5f"/>
 <path d="m135 15.251953v-14.998047c-69.379459 2.6551178-125 59.725675-125 129.74609v8.44727c3.092301 1.04844 6.1592 2.16879 9.277344 3.14257 1.892911 0.59116 3.820619 1.07325 5.722656 1.63672v-13.22656c0-61.913406 48.744096-112.11882 110-114.74805z" fill="#c12a5f"/>
</svg>
