<?xml version="1.0" encoding="UTF-8"?>
<svg version="1.1" viewBox="0 0 280 280" xmlns="http://www.w3.org/2000/svg">
 <path d="m140 79c-1.53063 0-2.98254 0.304493-4.30078 0.857422s-2.50375 1.35336-3.4961 2.345703c-0.99234 0.992343-1.79277 2.177851-2.3457 3.496094-0.55293 1.318242-0.85742 2.770153-0.85742 4.300781v30c0 1.53063 0.30449 2.98254 0.85742 4.30078s1.35336 2.50375 2.3457 3.4961c0.99235 0.99234 2.17786 1.79277 3.4961 2.3457s2.77015 0.85742 4.30078 0.85742 2.98254-0.30449 4.30078-0.85742 2.50375-1.35336 3.4961-2.3457c0.99234-0.99235 1.79277-2.17786 2.3457-3.4961s0.85742-2.77015 0.85742-4.30078v-30c0-1.530628-0.30449-2.982539-0.85742-4.300781-0.55293-1.318243-1.35336-2.503751-2.3457-3.496094-0.99235-0.992343-2.17786-1.792774-3.4961-2.345703s-2.77015-0.857422-4.30078-0.857422z" fill="#454545"/>
 <path d="m145 50.177734v21.515625c1.00489 0.276582 1.9778 0.633903 2.91016 1.064453 0.93236 0.430551 1.8233 0.934351 2.66796 1.503907 1.68934 1.139112 3.18995 2.541127 4.4375 4.146484 0.62378 0.802679 1.18325 1.65594 1.67383 2.552735 0.49059 0.896794 0.91169 1.836551 1.25391 2.8125 0.34222 0.975948 0.60646 1.989158 0.78516 3.029296 0.17869 1.040138 0.27148 2.107901 0.27148 3.197266v30c0 1.08937-0.0928 2.15713-0.27148 3.19727-0.1787 1.04013-0.44294 2.05334-0.78516 3.02929s-0.76332 1.91571-1.25391 2.8125c-0.49058 0.8968-1.05005 1.75006-1.67383 2.55274-1.24755 1.60535-2.74816 3.00737-4.4375 4.14648-0.84466 0.56956-1.7356 1.07336-2.66796 1.50391s-1.90527 0.78787-2.91016 1.06445v21.66211c6.60042-0.0814 13.18305-0.32344 19.74219-0.72461 6.55913-0.40117 13.09426-0.96116 19.60156-1.67773 6.5073-0.71658 12.98673-1.58958 19.43164-2.61719 5.43802-0.86707 10.83793-1.90459 16.22461-2.99024v-21.95898a80 80 0 0 0-75-79.822266z" fill="#454545"/>
 <path d="m60 151.95898c5.386675 1.08565 10.786588 2.12317 16.224609 2.99024 6.444908 1.02761 12.924343 1.90061 19.431641 2.61719 6.5073 0.71657 13.04243 1.27656 19.60156 1.67773 6.55914 0.40117 13.14177 0.64322 19.74219 0.72461v-21.66211c-1.00489-0.27658-1.9778-0.6339-2.91016-1.06445s-1.8233-0.93435-2.66796-1.50391c-1.68934-1.13911-3.18995-2.54113-4.4375-4.14648-0.62378-0.80268-1.18325-1.65594-1.67383-2.55274-0.49059-0.89679-0.91169-1.83655-1.25391-2.8125s-0.60646-1.98916-0.78516-3.02929c-0.17869-1.04014-0.27148-2.1079-0.27148-3.19727v-30c0-1.089365 0.0928-2.157128 0.27148-3.197266 0.1787-1.040138 0.44294-2.053348 0.78516-3.029296 0.34222-0.975949 0.76332-1.915706 1.25391-2.8125 0.49058-0.896795 1.05005-1.750056 1.67383-2.552735 1.24755-1.605357 2.74817-3.007372 4.4375-4.146484 0.84466-0.569556 1.73561-1.073356 2.66796-1.503907 0.93236-0.43055 1.90529-0.787871 2.91016-1.064453v-21.443359a80 80 0 0 0-75 79.75z" fill="#454545"/>
 <path d="m60 162.18555v37.81445a80 80 0 0 0 80 80 80 80 0 0 0 80-80v-37.81445c-6.20837 1.21989-12.44355 2.32902-18.7168 3.26562-6.72235 1.00365-13.47973 1.84378-20.26562 2.51758s-13.60137 1.18224-20.43946 1.52148c-6.83808 0.33925-13.69919 0.50977-20.57812 0.50977s-13.74004-0.17052-20.57812-0.50977c-6.83809-0.33924-13.65357-0.84768-20.439458-1.52148-6.785889-0.6738-13.543273-1.51393-20.265625-2.51758-6.273247-0.9366-12.508429-2.04573-18.716797-3.26562z" fill="#454545"/>
</svg>
