<?xml version="1.0" encoding="UTF-8" standalone="no"?>
<svg
   xmlns:dc="http://purl.org/dc/elements/1.1/"
   xmlns:cc="http://creativecommons.org/ns#"
   xmlns:rdf="http://www.w3.org/1999/02/22-rdf-syntax-ns#"
   xmlns:svg="http://www.w3.org/2000/svg"
   xmlns="http://www.w3.org/2000/svg"
   xmlns:sodipodi="http://sodipodi.sourceforge.net/DTD/sodipodi-0.dtd"
   xmlns:inkscape="http://www.inkscape.org/namespaces/inkscape"
   version="1.1"
   viewBox="0 0 80 80"
   id="svg48"
   sodipodi:docname="mouse_left_double.svg"
   inkscape:version="0.92.4 (5da689c313, 2019-01-14)"
   width="80"
   height="80">
  <metadata
     id="metadata54">
    <rdf:RDF>
      <cc:Work
         rdf:about="">
        <dc:format>image/svg+xml</dc:format>
        <dc:type
           rdf:resource="http://purl.org/dc/dcmitype/StillImage" />
        <dc:title></dc:title>
      </cc:Work>
    </rdf:RDF>
  </metadata>
  <defs
     id="defs52" />
  <sodipodi:namedview
     pagecolor="#ffffff"
     bordercolor="#666666"
     borderopacity="1"
     objecttolerance="10"
     gridtolerance="10"
     guidetolerance="10"
     inkscape:pageopacity="0"
     inkscape:pageshadow="2"
     inkscape:window-width="640"
     inkscape:window-height="480"
     id="namedview50"
     showgrid="false"
     inkscape:current-layer="svg48"
     inkscape:zoom="13.485714"
     inkscape:cx="7.6991559"
     inkscape:cy="38.98897"
     inkscape:snap-bbox="true"
     inkscape:bbox-paths="true"
     inkscape:bbox-nodes="true"
     inkscape:snap-bbox-edge-midpoints="true"
     inkscape:snap-bbox-midpoints="true"
     inkscape:object-paths="true"
     inkscape:snap-intersection-paths="true"
     inkscape:snap-smooth-nodes="true"
     inkscape:snap-midpoints="true"
     inkscape:snap-object-midpoints="true"
     inkscape:snap-center="true"
     inkscape:snap-text-baseline="true"
     inkscape:snap-page="true"
     showguides="false" />
  <g
     id="g13"
     style="fill:#c12a5f;fill-opacity:1;fill-rule:evenodd">
    <path
       d="m 38.192978,6.9769169 -0.0071,6e-4 c -0.08922,0.00274 -0.178647,0.00693 -0.267703,0.013126 -0.0029,1.772e-4 -0.0051,2.857e-4 -0.0077,6e-4 C 22.789748,8.0316742 11.082263,20.276637 10.472346,35.069424 c -0.106571,2.584821 -0.174886,4.512412 -0.222986,6.539975 1.241508,0.297149 2.485703,0.574113 3.731852,0.836484 0.04644,-2.195946 0.12155,-4.34238 0.240276,-7.221933 0.532564,-12.916941 10.69645,-23.581033 23.95315,-24.489804 0.04288,-0.0031 0.08582,-0.0052 0.128783,-0.0066 0.0324,1.19e-4 0.06479,6e-4 0.09719,0.0018 V 6.9768252 c -0.06913,-3.143e-4 -0.138178,-0.00214 -0.207485,0 z"
       id="path10"
       inkscape:connector-curvature="0"
       style="fill:#c12a5f;fill-opacity:1;stroke-width:0.28572068" />
    <path
       d="m 38.400543,0.00301653 c -0.02286,0.00122105 -0.0432,0.00214264 -0.06618,0.00357738 -2.85e-4,2.443e-5 -8.57e-4,-2.442e-5 -0.0011,0 -0.04794,0.00122106 -0.09584,0.00338355 -0.143689,0.0065583 -0.0072,6.1053e-4 -0.002,3.148e-5 -0.01014,5.9618e-4 -0.0014,9.769e-5 -0.0029,5.9619e-4 -0.0042,5.9619e-4 -0.01597,0.0012211 -0.02214,0.0017885 -0.02146,0.0017885 v 5.9619e-4 C 19.300262,1.327197 4.55937,16.684143 3.7931586,35.235036 c -0.080468,1.951672 -0.1374634,3.050257 -0.184233,4.676642 1.4146546,0.419189 2.8323003,0.820733 4.2541591,1.194224 0.048638,-1.905854 0.1129691,-3.315777 0.2110624,-5.695005 C 8.7491468,19.039285 21.721279,5.4797633 38.400291,4.2953396 Z"
       id="path11"
       inkscape:connector-curvature="0"
       style="fill:#c12a5f;fill-opacity:1;stroke-width:0.28572068" />
    <path
       d="M 38.400557,14.028209 C 26.768779,14.825558 17.983892,24.079025 17.51867,35.361276 c -0.123901,3.005142 -0.201569,5.481626 -0.246565,7.737833 6.896219,1.5287 13.989944,2.366039 21.128235,2.493945 v -6.467017 c -2.154125,-0.835661 -3.674768,-3.320663 -3.77581,-6.255165 -0.08674,-2.524534 -0.09949,-3.895779 0,-6.994513 0.09424,-2.935236 1.619396,-5.419963 3.77581,-6.255165 z"
       id="path12"
       inkscape:connector-curvature="0" />
  </g>
</svg>
