<?xml version="1.0" encoding="UTF-8"?>
<svg version="1.1" viewBox="0 0 280 280" xmlns="http://www.w3.org/2000/svg">
 <path d="m145 50.177734v21.515625c1.00489 0.276582 1.9778 0.633903 2.91016 1.064453 0.93236 0.430551 1.8233 0.934351 2.66796 1.503907 1.68934 1.139112 3.18995 2.541127 4.4375 4.146484 0.62378 0.802679 1.18325 1.65594 1.67383 2.552735 0.49059 0.896794 0.91169 1.836551 1.25391 2.8125 0.34222 0.975948 0.60646 1.989158 0.78516 3.029296 0.17869 1.040138 0.27148 2.107901 0.27148 3.197266v30c0 1.08937-0.0928 2.15713-0.27148 3.19727-0.1787 1.04013-0.44294 2.05334-0.78516 3.02929s-0.76332 1.91571-1.25391 2.8125c-0.49058 0.8968-1.05005 1.75006-1.67383 2.55274-1.24755 1.60535-2.74816 3.00737-4.4375 4.14648-0.84466 0.56956-1.7356 1.07336-2.66796 1.50391s-1.90527 0.78787-2.91016 1.06445v21.66211c6.60042-0.0814 13.18305-0.32344 19.74219-0.72461 6.55913-0.40117 13.09426-0.96116 19.60156-1.67773 6.5073-0.71658 12.98673-1.58958 19.43164-2.61719 5.43802-0.86707 10.83793-1.90459 16.22461-2.99024v-21.95898a80 80 0 0 0-75-79.822266z" fill="#c12a5f"/>
 <path d="m230 149.76172c4.00603-0.91342 8.02415-1.78076 11.99609-2.81445 1.00873-0.26253 1.99749-0.58915 3.00391-0.85938v-16.08789c0-56.213278-44.42806-102.11026-100-104.74609v14.998047c47.44394 2.599956 85 41.641905 85 89.748043z" fill="#c12a5f"/>
 <path d="m255 143.22656c1.90204-0.56347 3.82974-1.04556 5.72266-1.63672 3.11814-0.97378 6.18504-2.09413 9.27734-3.14257v-8.44727c0-70.020415-55.62054-127.09097-125-129.74609v14.998047c61.2559 2.629229 110 52.834641 110 114.74804z" fill="#c12a5f"/>
</svg>
